<?xml version="1.0" standalone="no"?>
<!DOCTYPE svg PUBLIC "-//W3C//DTD SVG 20010904//EN"
 "http://www.w3.org/TR/2001/REC-SVG-20010904/DTD/svg10.dtd">
<svg version="1.0" xmlns="http://www.w3.org/2000/svg"
 width="456.000000pt" height="456.000000pt" viewBox="0 0 456.000000 456.000000"
 preserveAspectRatio="xMidYMid meet">
<metadata>
Created by potrace 1.11, written by Peter Selinger 2001-2013
</metadata>
<g transform="translate(0.000000,456.000000) scale(0.100000,-0.100000)"
fill="#000000" stroke="none">
<path d="M1989 4420 c-385 -56 -709 -193 -1028 -433 -167 -126 -330 -300 -486
-522 -38 -55 -102 -169 -144 -258 -106 -225 -156 -393 -192 -644 -34 -238 -19
-558 36 -788 80 -329 214 -602 424 -864 200 -247 456 -451 736 -587 140 -67
172 -80 310 -123 470 -148 955 -131 1425 47 578 219 1051 705 1261 1293 112
314 152 663 113 974 -44 346 -154 656 -331 928 -354 546 -918 901 -1561 981
-164 21 -403 19 -563 -4z m662 -40 c284 -49 551 -153 791 -306 255 -164 505
-417 666 -676 84 -135 199 -389 227 -500 l7 -28 -929 0 -930 0 -6 212 c-4 116
-7 443 -8 727 0 284 -3 510 -6 504 -3 -10 -51 -13 -187 -13 -100 0 -232 -5
-292 -10 -139 -14 -179 -18 -179 -20 0 -1 -20 -4 -45 -6 -25 -3 -78 -14 -118
-24 -86 -24 -110 -25 -62 -4 100 44 295 95 435 115 50 7 173 13 275 14 165 1
185 3 188 18 4 22 32 22 173 -3z m-1369 -902 l-3 -608 -524 0 -524 0 35 103
c160 463 488 870 911 1127 l98 59 5 -37 c3 -20 4 -310 2 -644z m-2 -2448 c0
-352 -4 -640 -8 -640 -4 0 -46 23 -92 52 -293 178 -557 445 -733 740 -84 141
-207 422 -207 473 0 13 58 15 520 15 l520 0 0 -640z m3055 613 c-14 -59 -99
-263 -152 -362 -318 -607 -903 -1024 -1578 -1125 -198 -29 -550 -18 -740 25
-160 35 -159 35 -80 42 39 4 89 5 113 3 23 -2 45 1 48 6 3 5 20 8 38 7 17 -2
36 -1 41 2 15 8 372 11 405 4 19 -4 30 -14 32 -28 7 -42 18 618 18 1035 l0
418 931 0 931 0 -7 -27z"/>
</g>
</svg>
